# MagicaVoxel @ Ephtracy

# group
g rug

# material
mtllib rug.mtl
usemtl palette

# normals
vn -1 0 0
vn 1 0 0
vn 0 0 1
vn 0 0 -1
vn 0 -1 0
vn 0 1 0

# texcoords
vt 0.845703 0.5
vt 0.958984 0.5

# verts
v -10 0 10
v -10 0 -10
v -10 1 10
v -10 1 -10
v 10 0 10
v 10 0 -10
v 10 1 10
v 10 1 -10
v -10 0 10
v -10 1 10
v 10 0 10
v 10 1 10
v -10 0 -10
v -10 1 -10
v 10 0 -10
v 10 1 -10
v -10 0 10
v 10 0 10
v -9 0 9
v 9 0 9
v -8 0 8
v 8 0 8
v -8 0 -8
v 8 0 -8
v -9 0 -9
v 9 0 -9
v -10 0 -10
v 10 0 -10
v -10 1 10
v 10 1 10
v -9 1 9
v 9 1 9
v -8 1 8
v 8 1 8
v -8 1 -8
v 8 1 -8
v -9 1 -9
v 9 1 -9
v -10 1 -10
v 10 1 -10

# faces
f 3/1/1 2/1/1 1/1/1
f 4/1/1 2/1/1 3/1/1
f 5/1/2 6/1/2 7/1/2
f 7/1/2 6/1/2 8/1/2
f 11/1/3 10/1/3 9/1/3
f 12/1/3 10/1/3 11/1/3
f 13/1/4 14/1/4 15/1/4
f 15/1/4 14/1/4 16/1/4
f 19/1/5 18/1/5 17/1/5
f 20/1/5 18/1/5 19/1/5
f 21/2/5 20/2/5 19/2/5
f 22/2/5 20/2/5 21/2/5
f 23/2/5 21/2/5 19/2/5
f 23/1/5 22/1/5 21/1/5
f 24/2/5 20/2/5 22/2/5
f 24/1/5 22/1/5 23/1/5
f 25/1/5 19/1/5 17/1/5
f 25/2/5 23/2/5 19/2/5
f 25/2/5 24/2/5 23/2/5
f 26/2/5 20/2/5 24/2/5
f 26/2/5 24/2/5 25/2/5
f 26/1/5 18/1/5 20/1/5
f 27/1/5 25/1/5 17/1/5
f 27/1/5 26/1/5 25/1/5
f 28/1/5 18/1/5 26/1/5
f 28/1/5 26/1/5 27/1/5
f 29/1/6 30/1/6 31/1/6
f 31/1/6 30/1/6 32/1/6
f 31/2/6 32/2/6 33/2/6
f 33/2/6 32/2/6 34/2/6
f 31/2/6 33/2/6 35/2/6
f 33/1/6 34/1/6 35/1/6
f 34/2/6 32/2/6 36/2/6
f 35/1/6 34/1/6 36/1/6
f 29/1/6 31/1/6 37/1/6
f 31/2/6 35/2/6 37/2/6
f 35/2/6 36/2/6 37/2/6
f 36/2/6 32/2/6 38/2/6
f 37/2/6 36/2/6 38/2/6
f 32/1/6 30/1/6 38/1/6
f 29/1/6 37/1/6 39/1/6
f 37/1/6 38/1/6 39/1/6
f 38/1/6 30/1/6 40/1/6
f 39/1/6 38/1/6 40/1/6
